<?xml version="1.0" encoding="UTF-8" standalone="no"?>
<!-- Created with Inkscape (http://www.inkscape.org/) -->

<svg
   xmlns:dc="http://purl.org/dc/elements/1.1/"
   xmlns:cc="http://creativecommons.org/ns#"
   xmlns:rdf="http://www.w3.org/1999/02/22-rdf-syntax-ns#"
   xmlns:svg="http://www.w3.org/2000/svg"
   xmlns="http://www.w3.org/2000/svg"
   xmlns:sodipodi="http://sodipodi.sourceforge.net/DTD/sodipodi-0.dtd"
   xmlns:inkscape="http://www.inkscape.org/namespaces/inkscape"
   width="20.637501mm"
   height="20.902082mm"
   viewBox="0 0 20.637501 20.902082"
   version="1.1"
   id="svg4588"
   inkscape:version="0.92.5 (2060ec1f9f, 2020-04-08)"
   sodipodi:docname="apple.svg">
  <defs
     id="defs4582" />
  <sodipodi:namedview
     id="base"
     pagecolor="#ffffff"
     bordercolor="#666666"
     borderopacity="1.0"
     inkscape:pageopacity="0.0"
     inkscape:pageshadow="2"
     inkscape:zoom="2.8"
     inkscape:cx="269.8677"
     inkscape:cy="-68.408146"
     inkscape:document-units="mm"
     inkscape:current-layer="layer1"
     showgrid="false"
     inkscape:window-width="1920"
     inkscape:window-height="1016"
     inkscape:window-x="0"
     inkscape:window-y="27"
     inkscape:window-maximized="1" />
  <metadata
     id="metadata4585">
    <rdf:RDF>
      <cc:Work
         rdf:about="">
        <dc:format>image/svg+xml</dc:format>
        <dc:type
           rdf:resource="http://purl.org/dc/dcmitype/StillImage" />
        <dc:title></dc:title>
      </cc:Work>
    </rdf:RDF>
  </metadata>
  <g
     inkscape:label="Layer 1"
     inkscape:groupmode="layer"
     id="layer1"
     transform="translate(-65.276489,-92.269196)">
    <path
       style="fill:#000000;stroke-width:0.29433906"
       d="m 71.067653,109.72182 c -1.320614,-0.71859 -2.590103,-3.18543 -2.790859,-5.42315 -0.198674,-2.21468 0.453082,-3.96464 1.87545,-5.035518 0.851901,-0.641383 1.172228,-0.71539 2.544801,-0.587958 0.863615,0.08019 1.885282,0.233483 2.270352,0.340659 0.645301,0.179626 0.700129,0.10807 0.700129,-0.913716 0,-1.180461 -0.93933,-2.575789 -1.734015,-2.575789 -0.244295,0 -0.444168,-0.133736 -0.444168,-0.297178 0,-0.442688 1.312052,-0.02399 1.932066,0.616549 0.529198,0.546718 0.536066,0.546665 1.400258,-0.01105 0.477662,-0.308259 1.253542,-0.642603 1.724183,-0.742992 0.763872,-0.162937 0.855712,-0.105987 0.855712,0.530608 0,1.52697 -1.427084,2.966684 -2.940656,2.966684 -0.265217,0 -0.482202,0.139902 -0.482202,0.310889 0,0.194537 0.262029,0.237954 0.700128,0.116015 0.385071,-0.107187 1.432188,-0.262379 2.326922,-0.344868 1.535988,-0.141607 1.686408,-0.0966 2.694856,0.805666 1.981097,1.772589 2.252712,5.262139 0.639514,8.216099 -1.215331,2.22542 -2.010263,2.53232 -6.562905,2.53373 -3.105942,9.8e-4 -3.945694,-0.089 -4.709566,-0.50467 z m 9.768343,-0.94546 c 2.480575,-2.21951 2.587963,-8.17103 0.168331,-9.329689 -0.862991,-0.413245 -2.971716,-0.377625 -4.179908,0.07061 -0.822147,0.305017 -1.168324,0.307269 -1.934819,0.01252 -1.136523,-0.436974 -3.400889,-0.488642 -4.220224,-0.09628 -0.330477,0.158254 -0.897827,0.808549 -1.260776,1.445109 -1.306583,2.29155 -0.364688,6.7543 1.737862,8.23409 0.690849,0.48622 1.265726,0.55332 4.740684,0.55332 h 3.954503 z m -2.774453,-0.34244 c -0.109493,-0.098 0.252256,-0.37987 0.803858,-0.62644 0.751476,-0.33593 1.112061,-0.76245 1.43828,-1.70122 0.239449,-0.68909 0.500796,-1.44082 0.580769,-1.67051 0.113021,-0.32444 0.179598,-0.33526 0.298594,-0.0484 0.58011,1.39823 -2.140138,4.92468 -3.121501,4.04661 z m 0.668175,-11.913019 c 0.229475,-0.417087 0.338991,-0.828343 0.243353,-0.913916 -0.292678,-0.261873 -2.065974,0.521337 -2.383926,1.052923 -0.507441,0.848358 -0.334299,0.941875 0.47865,0.258538 0.427856,-0.359652 0.777926,-0.522116 0.777926,-0.361052 0,0.161074 -0.210046,0.448834 -0.46676,0.639467 -0.256713,0.190633 -0.466749,0.471827 -0.466749,0.624883 0,0.481128 1.380806,-0.507152 1.817506,-1.300843 z"
       id="path4601"
       inkscape:connector-curvature="0" />
  </g>
</svg>
