<?xml version="1.0" encoding="UTF-8" standalone="no"?>
<!-- Created with Inkscape (http://www.inkscape.org/) -->

<svg
   xmlns:dc="http://purl.org/dc/elements/1.1/"
   xmlns:cc="http://creativecommons.org/ns#"
   xmlns:rdf="http://www.w3.org/1999/02/22-rdf-syntax-ns#"
   xmlns:svg="http://www.w3.org/2000/svg"
   xmlns="http://www.w3.org/2000/svg"
   xmlns:sodipodi="http://sodipodi.sourceforge.net/DTD/sodipodi-0.dtd"
   xmlns:inkscape="http://www.inkscape.org/namespaces/inkscape"
   width="20.637501mm"
   height="20.902082mm"
   viewBox="0 0 20.637501 20.902082"
   version="1.1"
   id="svg4668"
   inkscape:version="0.92.5 (2060ec1f9f, 2020-04-08)"
   sodipodi:docname="avocado.svg">
  <defs
     id="defs4662" />
  <sodipodi:namedview
     id="base"
     pagecolor="#ffffff"
     bordercolor="#666666"
     borderopacity="1.0"
     inkscape:pageopacity="0.0"
     inkscape:pageshadow="2"
     inkscape:zoom="3.959798"
     inkscape:cx="196.30161"
     inkscape:cy="2.4080322"
     inkscape:document-units="mm"
     inkscape:current-layer="layer1"
     showgrid="false"
     inkscape:window-width="1920"
     inkscape:window-height="1016"
     inkscape:window-x="0"
     inkscape:window-y="27"
     inkscape:window-maximized="1" />
  <metadata
     id="metadata4665">
    <rdf:RDF>
      <cc:Work
         rdf:about="">
        <dc:format>image/svg+xml</dc:format>
        <dc:type
           rdf:resource="http://purl.org/dc/dcmitype/StillImage" />
        <dc:title></dc:title>
      </cc:Work>
    </rdf:RDF>
  </metadata>
  <g
     inkscape:label="Layer 1"
     inkscape:groupmode="layer"
     id="layer1"
     transform="translate(-167.33006,-186.00729)">
    <path
       style="fill:#000000;stroke-width:0.26458332"
       d="m 174.76895,203.87928 c -2.29343,-0.74074 -3.98768,-3.1068 -3.98768,-5.56887 0,-2.59944 1.6126,-4.7012 4.26371,-5.557 0.77726,-0.25091 2.38403,-0.97847 3.5706,-1.61679 2.31004,-1.2427 3.1196,-1.38699 4.31467,-0.76899 2.02621,1.04779 2.47051,3.30828 1.08092,5.49944 -0.42977,0.67767 -1.10985,2.15732 -1.51128,3.2881 -0.75523,2.12736 -1.96635,3.77609 -3.26847,4.44944 -1.10259,0.57017 -3.15621,0.69657 -4.46247,0.27467 z m 4.09681,-0.77833 c 1.5412,-0.71764 2.29947,-1.64845 2.99886,-3.68128 0.2696,-0.78361 0.99756,-2.39701 1.61769,-3.58533 1.07978,-2.06916 1.11395,-2.20578 0.80759,-3.22835 -0.3632,-1.21225 -1.53581,-2.09819 -2.7792,-2.09979 -0.42258,-5.6e-4 -1.52663,0.42307 -2.45345,0.94138 -0.92682,0.51831 -2.36686,1.17693 -3.20009,1.4636 -3.18423,1.09553 -4.55835,2.7515 -4.55835,5.49331 0,4.01755 3.86853,6.41857 7.56695,4.69646 z m -3.77951,-1.86733 c -0.97073,-0.42585 -1.67077,-1.60081 -1.67077,-2.80423 0,-1.15524 1.47728,-2.63252 2.63251,-2.63252 1.2525,0 2.38538,0.70714 2.82729,1.76478 0.49254,1.1788 0.27804,2.19965 -0.64401,3.06494 -0.91175,0.85563 -2.06912,1.07902 -3.14502,0.60703 z m 2.88594,-0.88003 c 0.26802,-0.26802 0.55484,-0.9035 0.63739,-1.41217 0.34962,-2.15445 -2.45426,-3.5272 -4.0155,-1.96595 -0.95142,0.95142 -0.88749,2.32822 0.15659,3.3723 0.69381,0.69381 0.94025,0.78424 1.77012,0.64957 0.53025,-0.0861 1.18338,-0.37574 1.4514,-0.64375 z"
       id="path4681"
       inkscape:connector-curvature="0" />
  </g>
</svg>
