<?xml version="1.0" encoding="UTF-8" standalone="no"?>
<!-- Created with Inkscape (http://www.inkscape.org/) -->

<svg
   xmlns:dc="http://purl.org/dc/elements/1.1/"
   xmlns:cc="http://creativecommons.org/ns#"
   xmlns:rdf="http://www.w3.org/1999/02/22-rdf-syntax-ns#"
   xmlns:svg="http://www.w3.org/2000/svg"
   xmlns="http://www.w3.org/2000/svg"
   xmlns:sodipodi="http://sodipodi.sourceforge.net/DTD/sodipodi-0.dtd"
   xmlns:inkscape="http://www.inkscape.org/namespaces/inkscape"
   width="13.330025mm"
   height="14.54484mm"
   viewBox="0 0 13.330025 14.54484"
   version="1.1"
   id="svg8"
   inkscape:version="0.92.5 (2060ec1f9f, 2020-04-08)"
   sodipodi:docname="banana.svg">
  <defs
     id="defs2" />
  <sodipodi:namedview
     id="base"
     pagecolor="#ffffff"
     bordercolor="#666666"
     borderopacity="1.0"
     inkscape:pageopacity="0.0"
     inkscape:pageshadow="2"
     inkscape:zoom="3.959798"
     inkscape:cx="-33.925677"
     inkscape:cy="-12.609859"
     inkscape:document-units="mm"
     inkscape:current-layer="layer1"
     showgrid="false"
     inkscape:window-width="1920"
     inkscape:window-height="1016"
     inkscape:window-x="0"
     inkscape:window-y="27"
     inkscape:window-maximized="1" />
  <metadata
     id="metadata5">
    <rdf:RDF>
      <cc:Work
         rdf:about="">
        <dc:format>image/svg+xml</dc:format>
        <dc:type
           rdf:resource="http://purl.org/dc/dcmitype/StillImage" />
        <dc:title />
      </cc:Work>
    </rdf:RDF>
  </metadata>
  <g
     inkscape:label="Layer 1"
     inkscape:groupmode="layer"
     id="layer1"
     transform="translate(-163.64869,-158.39613)">
    <path
       style="fill:#000000;stroke-width:0.17859374"
       d="m 166.104,170.26182 c -0.5525,-0.5525 -0.3183,-1.05063 0.74543,-1.58544 1.02837,-0.51703 2.66937,-1.66726 2.54956,-1.78706 -0.0431,-0.0431 -0.37817,0.0469 -0.74458,0.19996 -0.36641,0.15309 -0.69656,0.27835 -0.73368,0.27835 -0.43157,0 0.85833,-2.51394 1.64374,-3.20353 0.47095,-0.41349 0.7957,-0.54693 1.33109,-0.54693 h 0.70816 v -1.07157 c 0,-1.16921 0.37298,-1.78593 1.08008,-1.78593 0.92516,0 1.85247,2.05025 1.75665,3.8839 -0.03,0.57364 0.0416,1.19971 0.16214,1.41752 0.361,0.65251 0.25255,1.53588 -0.29445,2.3984 -0.47736,0.75272 -1.72189,1.94424 -2.03074,1.94424 -0.0759,0 -0.1379,-0.2666 -0.1379,-0.59245 v -0.59245 l -1.23723,0.61413 c -1.049,0.52071 -1.48015,0.62799 -2.83406,0.70518 -1.44214,0.0822 -1.63243,0.0555 -1.96421,-0.27632 z m 3.63672,-0.29833 c 0.4844,-0.14389 1.26248,-0.50377 1.72905,-0.79974 0.76826,-0.48731 0.84809,-0.60167 0.84588,-1.21176 -0.001,-0.37051 -0.0499,-0.85068 -0.10792,-1.06706 -0.10206,-0.38061 -0.12084,-0.3748 -0.57799,0.1786 -0.25988,0.31459 -0.66332,0.73273 -0.89652,0.92918 -0.54015,0.45502 -2.54075,1.69664 -2.73375,1.69664 -0.3887,0 -0.0532,-0.31605 0.81955,-0.77206 0.53071,-0.27729 1.29141,-0.78363 1.69046,-1.12519 0.76471,-0.65456 1.54621,-1.63936 1.40947,-1.7761 -0.21763,-0.21764 -1.70475,0.55019 -2.53469,1.3087 -0.51351,0.46932 -1.42699,1.11626 -2.02994,1.43763 -1.21782,0.64909 -1.33681,0.76804 -1.17919,1.1788 0.1444,0.37627 2.32813,0.38997 3.56559,0.0224 z m 4.64706,-2.34465 c 0.23445,-0.61389 0.24581,-0.82323 0.0635,-1.16922 -0.30313,-0.57521 -0.50563,-0.68342 -1.28484,-0.6866 l -0.66973,-0.003 v 2.09102 2.091 l 0.80277,-0.78784 c 0.44151,-0.43331 0.93126,-1.12435 1.08833,-1.53563 z m -3.94492,-1.53523 c 0.88404,-0.29681 1.63215,-0.56266 1.66245,-0.59078 0.0303,-0.0281 -0.0633,-0.33462 -0.20812,-0.68112 -0.37359,-0.89412 -0.85026,-1.10749 -1.63852,-0.73344 -0.67236,0.31906 -1.05647,0.77972 -1.68436,2.02005 -0.3642,0.71943 -0.36984,0.77375 -0.0679,0.65472 0.18105,-0.0714 1.05248,-0.37262 1.93652,-0.66943 z m 3.66117,-1.74016 c 0,-2.13259 -1.15591,-3.93304 -1.92789,-3.00286 -0.27759,0.33449 -0.28734,2.62768 -0.0144,3.38453 0.21528,0.59688 0.30866,0.66676 0.95647,0.71564 0.39485,0.0298 0.77819,0.0287 0.85186,-0.002 0.0737,-0.0311 0.13394,-0.52381 0.13394,-1.09503 z"
       id="path4550"
       inkscape:connector-curvature="0" />
  </g>
</svg>
