<?xml version="1.0" encoding="UTF-8" standalone="no"?>
<!-- Created with Inkscape (http://www.inkscape.org/) -->

<svg
   xmlns:dc="http://purl.org/dc/elements/1.1/"
   xmlns:cc="http://creativecommons.org/ns#"
   xmlns:rdf="http://www.w3.org/1999/02/22-rdf-syntax-ns#"
   xmlns:svg="http://www.w3.org/2000/svg"
   xmlns="http://www.w3.org/2000/svg"
   xmlns:sodipodi="http://sodipodi.sourceforge.net/DTD/sodipodi-0.dtd"
   xmlns:inkscape="http://www.inkscape.org/namespaces/inkscape"
   width="20.637501mm"
   height="20.902082mm"
   viewBox="0 0 20.637501 20.902082"
   version="1.1"
   id="svg4708"
   inkscape:version="0.92.5 (2060ec1f9f, 2020-04-08)"
   sodipodi:docname="cherry.svg">
  <defs
     id="defs4702" />
  <sodipodi:namedview
     id="base"
     pagecolor="#ffffff"
     bordercolor="#666666"
     borderopacity="1.0"
     inkscape:pageopacity="0.0"
     inkscape:pageshadow="2"
     inkscape:zoom="7.9195959"
     inkscape:cx="111.80209"
     inkscape:cy="40.915783"
     inkscape:document-units="mm"
     inkscape:current-layer="layer1"
     showgrid="false"
     inkscape:window-width="1920"
     inkscape:window-height="1016"
     inkscape:window-x="0"
     inkscape:window-y="27"
     inkscape:window-maximized="1" />
  <metadata
     id="metadata4705">
    <rdf:RDF>
      <cc:Work
         rdf:about="">
        <dc:format>image/svg+xml</dc:format>
        <dc:type
           rdf:resource="http://purl.org/dc/dcmitype/StillImage" />
        <dc:title></dc:title>
      </cc:Work>
    </rdf:RDF>
  </metadata>
  <g
     inkscape:label="Layer 1"
     inkscape:groupmode="layer"
     id="layer1"
     transform="translate(-92.490776,-112.67991)">
    <path
       style="fill:#000000;stroke-width:0.26458332"
       d="m 98.628604,129.96439 c -0.999402,-0.49253 -1.639911,-1.55101 -1.639911,-2.71005 0,-1.16394 1.312126,-2.55651 2.603382,-2.76299 1.868745,-0.29883 2.946855,-1.73261 2.951395,-3.92508 0.002,-0.84485 -0.85067,-1.53636 -1.89387,-1.53636 -0.39559,0 -0.804045,-0.13718 -0.90767,-0.30485 -0.198355,-0.32095 1.40797,-0.20095 2.33999,0.17479 0.32977,0.13295 0.46302,0.0605 0.46302,-0.25165 0,-1.34999 1.63614,-2.79329 3.16651,-2.79329 1.15632,0 0.29409,2.61656 -1.09514,3.32337 -0.48441,0.24645 -0.92248,0.48461 -0.97349,0.52924 -0.051,0.0446 0.17134,0.35692 0.49412,0.69396 0.76215,0.79583 1.31842,2.10981 1.31842,3.1143 0,0.65005 0.16003,0.86642 0.8599,1.1626 1.33727,0.56594 1.91823,1.38254 1.91823,2.69631 0,2.07848 -2.00694,3.47235 -3.8752,2.69141 -0.48802,-0.20399 -1.054,-0.57189 -1.25775,-0.81756 -0.34577,-0.41693 -0.40743,-0.41202 -0.92604,0.0737 -0.56515,0.5293 -1.79043,1.08967 -2.358761,1.07875 -0.172427,-0.003 -0.706638,-0.19977 -1.187135,-0.43658 z m 2.880286,-0.82315 c 1.72425,-1.54062 0.69498,-4.14618 -1.637861,-4.14618 -2.195235,0 -3.165429,2.52371 -1.579772,4.10937 1.013248,1.01325 2.110763,1.0258 3.217633,0.0368 z m -2.504724,-0.60914 c -0.380906,-0.29962 -0.692556,-0.71472 -0.692556,-0.92244 0,-0.5661 0.447295,-0.45474 0.605645,0.15079 0.07601,0.29066 0.407906,0.62824 0.737552,0.75018 0.341387,0.12629 0.479393,0.29586 0.320637,0.39398 -0.153297,0.0947 -0.590371,-0.0729 -0.971278,-0.37251 z m 8.237134,0.41386 c 1.35736,-1.56218 0.065,-4.09522 -2.08943,-4.09522 -0.75234,0 -2.34456,1.65226 -2.33297,2.42094 0.0346,2.29502 2.93045,3.39136 4.4224,1.67428 z m -2.05052,-0.10864 c 0,-0.13571 0.23203,-0.3204 0.51563,-0.41041 0.2836,-0.09 0.58928,-0.39569 0.67929,-0.67928 0.09,-0.2836 0.27469,-0.51564 0.41041,-0.51564 0.4415,0 0.26106,0.53891 -0.40268,1.20265 -0.66374,0.66374 -1.20265,0.84419 -1.20265,0.40268 z M 104.326,124.6758 c 0.86996,-0.36349 0.90913,-0.43494 0.74625,-1.36111 -0.18109,-1.02974 -1.37059,-2.97617 -1.93199,-3.16142 -0.23281,-0.0768 -0.33073,0.25508 -0.33073,1.12094 0,1.35552 -0.3231,2.17219 -1.10651,2.7969 -0.505,0.40269 -0.50039,0.42736 0.22835,1.22272 0.72432,0.79054 0.7533,0.79808 1.11011,0.28867 0.2015,-0.28769 0.77954,-0.6957 1.28452,-0.9067 z m 0.44319,-6.2412 c 0.36643,-0.32742 0.74317,-0.92274 0.83718,-1.32292 0.14658,-0.62393 0.0885,-0.7276 -0.40726,-0.7276 -0.31801,0 -0.92623,0.34803 -1.3516,0.77339 -0.94422,0.94422 -1.04713,1.69267 -0.11194,0.81411 0.75049,-0.70505 0.94025,-0.21745 0.22357,0.57448 -0.62286,0.68826 0.0129,0.60077 0.81005,-0.11146 z"
       id="path4721"
       inkscape:connector-curvature="0" />
  </g>
</svg>
