<?xml version="1.0" encoding="UTF-8" standalone="no"?>
<!-- Created with Inkscape (http://www.inkscape.org/) -->

<svg
   xmlns:dc="http://purl.org/dc/elements/1.1/"
   xmlns:cc="http://creativecommons.org/ns#"
   xmlns:rdf="http://www.w3.org/1999/02/22-rdf-syntax-ns#"
   xmlns:svg="http://www.w3.org/2000/svg"
   xmlns="http://www.w3.org/2000/svg"
   xmlns:sodipodi="http://sodipodi.sourceforge.net/DTD/sodipodi-0.dtd"
   xmlns:inkscape="http://www.inkscape.org/namespaces/inkscape"
   width="20.637501mm"
   height="20.902082mm"
   viewBox="0 0 20.637501 20.902082"
   version="1.1"
   id="svg4868"
   inkscape:version="0.92.5 (2060ec1f9f, 2020-04-08)"
   sodipodi:docname="grapes.svg">
  <defs
     id="defs4862" />
  <sodipodi:namedview
     id="base"
     pagecolor="#ffffff"
     bordercolor="#666666"
     borderopacity="1.0"
     inkscape:pageopacity="0.0"
     inkscape:pageshadow="2"
     inkscape:zoom="3.959798"
     inkscape:cx="103.95742"
     inkscape:cy="-26.490276"
     inkscape:document-units="mm"
     inkscape:current-layer="layer1"
     showgrid="false"
     inkscape:window-width="1920"
     inkscape:window-height="1016"
     inkscape:window-x="0"
     inkscape:window-y="27"
     inkscape:window-maximized="1" />
  <metadata
     id="metadata4865">
    <rdf:RDF>
      <cc:Work
         rdf:about="">
        <dc:format>image/svg+xml</dc:format>
        <dc:type
           rdf:resource="http://purl.org/dc/dcmitype/StillImage" />
        <dc:title></dc:title>
      </cc:Work>
    </rdf:RDF>
  </metadata>
  <g
     inkscape:label="Layer 1"
     inkscape:groupmode="layer"
     id="layer1"
     transform="translate(-103.0741,-147.45372)">
    <path
       style="fill:#000000;stroke-width:0.26458332"
       d="m 112.24173,164.00392 c -0.63281,-0.58672 -0.73826,-0.86695 -0.65495,-1.7405 0.089,-0.93298 0.025,-1.06707 -0.61523,-1.29026 -1.05438,-0.36757 -1.64407,-1.4121 -1.43283,-2.53806 0.14848,-0.79149 0.10148,-0.92721 -0.32109,-0.92721 -0.53289,0 -1.46116,-0.89222 -1.73585,-1.66844 -0.28613,-0.80854 0.47026,-2.17434 1.42263,-2.56882 0.78594,-0.32555 0.96884,-0.3046 1.92799,0.22077 0.90278,0.4945 1.1218,0.52737 1.47933,0.22201 0.23081,-0.19713 0.62802,-0.43232 0.88268,-0.52263 0.85932,-0.30475 0.45977,-2.22181 -0.51401,-2.46621 -0.44207,-0.11095 -0.56294,-0.24921 -0.37884,-0.43331 0.1841,-0.1841 0.4962,-0.1224 0.97815,0.19339 0.56714,0.3716 0.8352,0.40571 1.34896,0.17162 0.94649,-0.43125 1.69692,-0.3572 2.72379,0.2688 l 0.91689,0.55895 -0.76082,0.65443 c -0.76852,0.66106 -1.93851,0.74517 -3.12349,0.22457 -0.33534,-0.14732 -0.46302,-0.0839 -0.46302,0.23007 0,0.23842 0.20836,0.50738 0.46302,0.59769 0.25466,0.0903 0.67138,0.34316 0.92604,0.56187 0.41268,0.35443 0.51336,0.3523 0.92604,-0.0196 0.74453,-0.67096 1.77627,-0.81008 2.65142,-0.35752 0.89306,0.46182 1.11889,0.89041 1.11889,2.1235 0,0.92248 -0.89257,2.00886 -1.65049,2.00886 -0.3336,0 -0.41601,0.25194 -0.38072,1.16384 0.0493,1.27326 -0.48325,2.119 -1.49399,2.37267 -0.48486,0.1217 -0.57584,0.33297 -0.57584,1.33727 0,1.44558 -0.47354,1.9951 -1.88182,2.18377 -0.85479,0.11451 -1.15604,0.0196 -1.78284,-0.56152 z m 2.78393,-0.31933 c 0.60289,-0.54561 0.62718,-1.87563 0.046,-2.51785 -0.54561,-0.60289 -1.87563,-0.62717 -2.51785,-0.046 -0.60289,0.5456 -0.62717,1.87562 -0.046,2.51784 0.5456,0.60289 1.87562,0.62718 2.51784,0.046 z m -2.10906,-0.40879 c -0.31383,-0.31382 -0.44122,-1.00541 -0.18521,-1.00541 0.0728,0 0.37042,0.23812 0.66146,0.52916 0.29104,0.29104 0.52917,0.5887 0.52917,0.66146 0,0.25602 -0.69159,0.12862 -1.00542,-0.18521 z m -0.28744,-2.87358 c 1.2995,-0.69547 1.09417,-2.58365 -0.34582,-3.18011 -0.67187,-0.27831 -0.87186,-0.2505 -1.48703,0.20671 -1.86599,1.38688 -0.21309,4.06835 1.83285,2.9734 z m -1.75132,-0.77929 c -0.65225,-0.72073 -0.31492,-0.97622 0.3763,-0.28501 0.30316,0.30317 0.55121,0.61075 0.55121,0.68351 0,0.30267 -0.47933,0.0967 -0.92751,-0.3985 z m 6.13598,0.48467 c 1.17151,-1.10058 0.41187,-2.95249 -1.21109,-2.95249 -1.6328,0 -2.39016,1.71947 -1.25662,2.853 0.82641,0.82642 1.65823,0.85995 2.46771,0.0995 z m -1.83503,-0.23966 c -0.25466,-0.14832 -0.46302,-0.49648 -0.46302,-0.77367 0,-0.45362 0.0661,-0.43787 0.66146,0.15746 0.91713,0.91713 0.82253,1.21088 -0.19844,0.61621 z m -4.10104,-3.47069 c 0.64268,-0.74326 0.57864,-1.44362 -0.2035,-2.22577 -0.84732,-0.84732 -1.86736,-0.75824 -2.59973,0.22702 -1.36326,1.83401 1.30229,3.7346 2.80323,1.99875 z m -2.34837,-0.33584 c -0.27249,-0.71011 0.0259,-0.80995 0.61912,-0.20717 0.56642,0.57556 0.56834,0.59531 0.0578,0.59531 -0.29041,0 -0.59504,-0.17466 -0.67696,-0.38814 z m 6.083,0.63352 c 0.85293,-0.67092 0.92931,-1.86528 0.16797,-2.62663 -1.0735,-1.07349 -2.91491,-0.27723 -2.90636,1.25677 0.005,0.85354 0.19987,1.19258 0.92199,1.60207 0.74918,0.42483 1.02611,0.38943 1.8164,-0.23221 z m -1.94131,-0.63336 c -0.57965,-0.69843 -0.15552,-0.92815 0.48341,-0.26182 0.45105,0.47039 0.51478,0.6498 0.23083,0.6498 -0.21574,0 -0.53715,-0.17459 -0.71424,-0.38798 z m 5.82829,0.91715 c 0.12988,0 0.4174,-0.3505 0.63893,-0.77888 0.65389,-1.2645 -0.19175,-2.6607 -1.61151,-2.6607 -0.62962,0 -1.6881,1.03522 -1.6881,1.65101 0,1.12787 1.16805,2.2013 2.07216,1.90432 0.19381,-0.0637 0.45864,-0.11575 0.58852,-0.11575 z m -1.87905,-1.08099 c -0.44315,-0.82804 -0.13083,-0.88999 0.63349,-0.12567 0.60908,0.60907 0.62621,0.67749 0.16967,0.67749 -0.27931,0 -0.64073,-0.24832 -0.80316,-0.55182 z m 0.26139,-4.05993 c 0.2508,-0.3022 0.20754,-0.43544 -0.21479,-0.66146 -0.66603,-0.35645 -1.80353,-0.36685 -2.01885,-0.0185 -0.0925,0.14969 0.15921,0.28179 0.5797,0.30422 l 0.74322,0.0396 -0.72761,0.11022 c -0.40018,0.0606 -0.7276,0.22138 -0.7276,0.35723 0,0.39676 2.02074,0.28452 2.36593,-0.13141 z"
       id="path4881"
       inkscape:connector-curvature="0" />
  </g>
</svg>
