<?xml version="1.0" encoding="UTF-8" standalone="no"?>
<!-- Created with Inkscape (http://www.inkscape.org/) -->

<svg
   xmlns:dc="http://purl.org/dc/elements/1.1/"
   xmlns:cc="http://creativecommons.org/ns#"
   xmlns:rdf="http://www.w3.org/1999/02/22-rdf-syntax-ns#"
   xmlns:svg="http://www.w3.org/2000/svg"
   xmlns="http://www.w3.org/2000/svg"
   xmlns:sodipodi="http://sodipodi.sourceforge.net/DTD/sodipodi-0.dtd"
   xmlns:inkscape="http://www.inkscape.org/namespaces/inkscape"
   width="20.637501mm"
   height="20.902082mm"
   viewBox="0 0 20.637501 20.902082"
   version="1.1"
   id="svg4828"
   inkscape:version="0.92.5 (2060ec1f9f, 2020-04-08)"
   sodipodi:docname="pear.svg">
  <defs
     id="defs4822" />
  <sodipodi:namedview
     id="base"
     pagecolor="#ffffff"
     bordercolor="#666666"
     borderopacity="1.0"
     inkscape:pageopacity="0.0"
     inkscape:pageshadow="2"
     inkscape:zoom="7.9195959"
     inkscape:cx="55.530011"
     inkscape:cy="9.5656417"
     inkscape:document-units="mm"
     inkscape:current-layer="layer1"
     showgrid="false"
     inkscape:window-width="1920"
     inkscape:window-height="1016"
     inkscape:window-x="0"
     inkscape:window-y="27"
     inkscape:window-maximized="1" />
  <metadata
     id="metadata4825">
    <rdf:RDF>
      <cc:Work
         rdf:about="">
        <dc:format>image/svg+xml</dc:format>
        <dc:type
           rdf:resource="http://purl.org/dc/dcmitype/StillImage" />
        <dc:title></dc:title>
      </cc:Work>
    </rdf:RDF>
  </metadata>
  <g
     inkscape:label="Layer 1"
     inkscape:groupmode="layer"
     id="layer1"
     transform="translate(-97.78244,-133.84657)">
    <path
       style="fill:#000000;stroke-width:0.26458332"
       d="m 105.83911,150.67232 c -0.95367,-0.41539 -2.16914,-1.78351 -2.39933,-2.70067 -0.2548,-1.01519 0.098,-2.24567 1.00827,-3.5168 0.50663,-0.70745 0.91651,-1.68271 1.04269,-2.48095 0.22081,-1.3968 0.77819,-2.22303 1.75055,-2.5949 0.9737,-0.37237 0.76647,-1.76291 -0.33072,-2.21924 -0.49237,-0.20478 -0.4956,-0.22805 -0.0465,-0.33462 0.26548,-0.063 0.70206,0.084 0.97017,0.32662 0.37996,0.34385 0.6052,0.37815 1.02126,0.15548 0.73804,-0.39499 1.51459,-0.35734 2.43379,0.118 1.04158,0.53862 0.98406,1.02699 -0.18635,1.58239 -0.78966,0.37472 -1.13893,0.40608 -1.90478,0.17103 -1.18278,-0.363 -1.47578,-0.14494 -0.33812,0.25165 0.96533,0.33652 1.62236,1.40486 1.62236,2.63799 0,0.5429 0.38323,1.41254 1.0843,2.46053 0.96247,1.43876 1.07131,1.75754 0.96874,2.83739 -0.13632,1.43527 -0.76576,2.3787 -2.08906,3.13119 -1.12218,0.63812 -3.34971,0.72269 -4.60731,0.17491 z m 3.44029,-0.18575 c 0.57526,-0.15971 1.43846,-0.68292 1.91823,-1.16269 0.72007,-0.72007 0.87207,-1.07318 0.87092,-2.02325 -8e-4,-0.6542 -0.20063,-1.44699 -0.46302,-1.83689 -1.48154,-2.20147 -1.65035,-2.55858 -1.65127,-3.49326 -0.001,-1.20638 -0.9466,-2.30308 -1.98536,-2.30308 -1.03877,0 -1.98418,1.0967 -1.98537,2.30308 -9.2e-4,0.93468 -0.16972,1.29179 -1.65126,3.49326 -0.80218,1.192 -0.45488,3.27761 0.70626,4.24127 0.46819,0.38857 2.20221,1.04658 2.79808,1.0618 0.21828,0.006 0.86754,-0.12053 1.44279,-0.28024 z m -1.44279,-0.9594 c 0,-0.13805 0.47578,-0.39356 1.0573,-0.56778 0.7963,-0.23858 1.1853,-0.55916 1.57581,-1.29865 0.44343,-0.83972 0.52019,-0.89274 0.53019,-0.36621 0.013,0.6816 -1.30919,2.16246 -1.93069,2.16246 -0.21757,0 -0.58392,0.0723 -0.8141,0.16059 -0.23018,0.0883 -0.41851,0.0477 -0.41851,-0.0904 z m 3.20947,-10.93655 c 0.42233,-0.22602 0.4656,-0.35927 0.2148,-0.66146 -0.34156,-0.41156 -2.36594,-0.53016 -2.36594,-0.13861 0,0.1319 0.22469,0.18106 0.49931,0.10924 0.27462,-0.0718 0.5793,-0.001 0.67707,0.15706 0.11072,0.17915 -0.0835,0.28764 -0.51492,0.28764 -0.39442,0 -0.62228,0.11393 -0.52917,0.26458 0.21532,0.3484 1.35282,0.338 2.01885,-0.0185 z"
       id="path4841"
       inkscape:connector-curvature="0" />
  </g>
</svg>
