<?xml version="1.0" encoding="UTF-8" standalone="no"?>
<!-- Created with Inkscape (http://www.inkscape.org/) -->

<svg
   xmlns:dc="http://purl.org/dc/elements/1.1/"
   xmlns:cc="http://creativecommons.org/ns#"
   xmlns:rdf="http://www.w3.org/1999/02/22-rdf-syntax-ns#"
   xmlns:svg="http://www.w3.org/2000/svg"
   xmlns="http://www.w3.org/2000/svg"
   xmlns:sodipodi="http://sodipodi.sourceforge.net/DTD/sodipodi-0.dtd"
   xmlns:inkscape="http://www.inkscape.org/namespaces/inkscape"
   width="20.637501mm"
   height="20.902082mm"
   viewBox="0 0 20.637501 20.902082"
   version="1.1"
   id="svg4788"
   inkscape:version="0.92.5 (2060ec1f9f, 2020-04-08)"
   sodipodi:docname="pineapple.svg">
  <defs
     id="defs4782" />
  <sodipodi:namedview
     id="base"
     pagecolor="#ffffff"
     bordercolor="#666666"
     borderopacity="1.0"
     inkscape:pageopacity="0.0"
     inkscape:pageshadow="2"
     inkscape:zoom="3.959798"
     inkscape:cx="14.169548"
     inkscape:cy="29.444224"
     inkscape:document-units="mm"
     inkscape:current-layer="layer1"
     showgrid="false"
     inkscape:window-width="1920"
     inkscape:window-height="1016"
     inkscape:window-x="0"
     inkscape:window-y="27"
     inkscape:window-maximized="1" />
  <metadata
     id="metadata4785">
    <rdf:RDF>
      <cc:Work
         rdf:about="">
        <dc:format>image/svg+xml</dc:format>
        <dc:type
           rdf:resource="http://purl.org/dc/dcmitype/StillImage" />
        <dc:title></dc:title>
      </cc:Work>
    </rdf:RDF>
  </metadata>
  <g
     inkscape:label="Layer 1"
     inkscape:groupmode="layer"
     id="layer1"
     transform="translate(-92.490776,-127.79896)">
    <path
       style="fill:#000000;stroke-width:0.26458332"
       d="m 101.65662,144.99767 c -1.971918,-0.61247 -2.551725,-1.85821 -2.549517,-5.47776 0.0019,-3.05475 0.203935,-3.67131 1.563737,-4.77128 0.80147,-0.64833 0.61752,-1.21602 -0.63313,-1.95392 -1.201943,-0.70917 -1.198926,-1.10099 0.007,-0.8748 0.90979,0.17067 0.93366,0.15454 0.76507,-0.51718 -0.18293,-0.72884 0.0957,-0.90432 0.61361,-0.38642 0.23286,0.23287 0.4372,0.15305 0.84667,-0.33072 l 0.53973,-0.63767 0.51786,0.61067 c 0.44119,0.52024 0.6032,0.565 1.09417,0.30224 0.54017,-0.28909 0.56494,-0.26317 0.39513,0.41341 -0.17647,0.70311 -0.15734,0.71737 0.73728,0.54954 1.25406,-0.23527 1.39059,0.16321 0.26383,0.77001 -0.51046,0.2749 -1.05199,0.73131 -1.20342,1.01425 -0.22864,0.42722 -0.13937,0.62082 0.52665,1.14206 1.25898,0.9853 1.7233,2.55706 1.58847,5.37716 -0.0888,1.8563 -0.23283,2.54955 -0.64443,3.10084 -1.13403,1.51891 -2.84125,2.16255 -4.42845,1.66957 z m 1.63187,-0.69356 c -0.2355,-0.2355 -0.55867,-0.34754 -0.71816,-0.24897 -0.52538,0.3247 -0.30251,0.67715 0.42818,0.67715 0.6617,0 0.6845,-0.0337 0.28998,-0.42818 z m -1.18346,-0.31801 c 0.40881,-0.45173 0.38644,-0.52895 -0.36061,-1.24468 l -0.79647,-0.76306 -0.56149,0.56149 -0.561495,0.56149 0.737165,0.68319 c 0.87724,0.81299 0.97769,0.82612 1.5429,0.20157 z m 3.46436,-0.66178 c 0.21041,-0.33357 0.1485,-0.56376 -0.26209,-0.97435 l -0.53759,-0.53759 -0.76064,0.79394 c -0.74292,0.77544 -0.74932,0.80645 -0.27478,1.33081 0.42436,0.46892 0.55383,0.49175 1.02273,0.18042 0.29528,-0.19606 0.66084,-0.55301 0.81237,-0.79323 z m -1.82817,-0.97918 0.76612,-0.79965 -0.79375,-0.79375 -0.79375,-0.79375 -0.75036,0.7832 -0.75036,0.78321 0.62906,0.79556 c 0.34598,0.43755 0.69608,0.80214 0.77799,0.81019 0.0819,0.008 0.49369,-0.3452 0.91505,-0.78501 z m -3.784364,-1.37686 -0.586913,-0.58691 v 0.56632 c 0,0.31148 0.07581,0.76389 0.168472,1.00535 0.153612,0.40031 0.20538,0.40213 0.586915,0.0206 0.38153,-0.38153 0.36667,-0.47021 -0.168474,-1.00535 z m 6.292254,0.25002 v -0.83693 l -0.57354,0.57353 c -0.47758,0.47758 -0.51683,0.64187 -0.2346,0.98193 0.47248,0.56931 0.80814,0.27087 0.80814,-0.71853 z m -4.41404,-0.93339 0.71204,-0.74321 -0.79483,-0.7615 -0.79484,-0.76149 -0.79483,0.76149 -0.794832,0.7615 0.712042,0.74321 c 0.39162,0.40877 0.78655,0.74322 0.87762,0.74322 0.0911,0 0.486,-0.33445 0.87763,-0.74322 z m 3.89211,0.0741 0.62864,-0.66916 -0.79195,-0.79195 -0.79195,-0.79195 -0.76441,0.79787 -0.76441,0.79787 0.62309,0.66324 c 0.78147,0.83183 1.07483,0.8309 1.86099,-0.006 z m -2.04003,-1.92614 0.71204,-0.74321 -0.79483,-0.7615 -0.79483,-0.7615 -0.79484,0.7615 -0.79483,0.7615 0.71204,0.74321 c 0.39163,0.40877 0.78656,0.74321 0.87763,0.74321 0.0911,0 0.486,-0.33444 0.87762,-0.74321 z m -3.42541,-0.37484 c 0.19044,-0.3019 0.16434,-0.55016 -0.09,-0.85667 -0.428404,-0.51619 -0.791207,-0.11947 -0.797715,0.87229 -0.0044,0.67704 0.455936,0.66894 0.887745,-0.0156 z m 5.88138,-0.92821 c -0.0802,-0.0802 -0.33028,0.007 -0.55575,0.19441 -0.36824,0.30561 -0.36216,0.39339 0.0597,0.86282 0.46346,0.51564 0.47084,0.51306 0.55575,-0.19442 0.0473,-0.39436 0.0204,-0.78262 -0.0598,-0.86281 z m -4.34229,-0.51483 c 0.6935,-0.66442 0.71264,-0.73931 0.3042,-1.19063 -0.58345,-0.64471 -0.93728,-0.60729 -1.67415,0.17708 -0.600771,0.63949 -0.604775,0.67418 -0.1374,1.19062 0.60949,0.67349 0.62096,0.67214 1.50735,-0.17707 z m 3.39609,-1.00425 c -0.72243,-0.76899 -1.12578,-0.83486 -1.60158,-0.26155 -0.28227,0.34011 -0.21397,0.53519 0.41852,1.19537 0.75499,0.78804 0.75644,0.78834 1.28323,0.26156 0.52678,-0.52679 0.52666,-0.52814 -0.10017,-1.19538 z m -1.85823,-0.5357 c 0.27918,-0.33638 0.21869,-0.39687 -0.39687,-0.39687 -0.61556,0 -0.67605,0.0605 -0.39688,0.39687 0.18116,0.21828 0.35975,0.39688 0.39688,0.39688 0.0371,0 0.21572,-0.1786 0.39687,-0.39688 z m -0.79375,-1.17142 c 0,-0.29163 -1.28623,-1.34212 -1.6433,-1.34212 -0.371,0 0.92735,1.55581 1.31257,1.57286 0.18191,0.008 0.33073,-0.0958 0.33073,-0.23074 z m 1.81025,-0.54837 c 0.32277,-0.43656 0.48027,-0.79375 0.35002,-0.79375 -0.34784,0 -1.6311,1.05591 -1.6311,1.34212 0,0.51865 0.72009,0.21041 1.28108,-0.54837 z m -2.57117,-1.39347 c -0.2613,-0.25936 -0.29169,-0.22897 -0.14811,0.14811 0.0994,0.26094 0.24731,0.40778 0.32877,0.32632 0.0815,-0.0815 1.7e-4,-0.29496 -0.18066,-0.47443 z m 1.40007,0.16557 c 0.19253,-0.50171 -0.0427,-1.41793 -0.36409,-1.41793 -0.33484,0 -0.57026,0.80961 -0.39552,1.36019 0.193,0.60809 0.53835,0.63434 0.75961,0.0577 z m 0.94835,-0.12625 c 0,-0.14552 -0.11906,-0.191 -0.26458,-0.10106 -0.14552,0.0899 -0.26458,0.28259 -0.26458,0.42811 0,0.14552 0.11906,0.19099 0.26458,0.10106 0.14552,-0.0899 0.26458,-0.28259 0.26458,-0.42811 z"
       id="path4801"
       inkscape:connector-curvature="0" />
  </g>
</svg>
