<?xml version="1.0" encoding="UTF-8" standalone="no"?>
<!-- Created with Inkscape (http://www.inkscape.org/) -->

<svg
   xmlns:dc="http://purl.org/dc/elements/1.1/"
   xmlns:cc="http://creativecommons.org/ns#"
   xmlns:rdf="http://www.w3.org/1999/02/22-rdf-syntax-ns#"
   xmlns:svg="http://www.w3.org/2000/svg"
   xmlns="http://www.w3.org/2000/svg"
   xmlns:sodipodi="http://sodipodi.sourceforge.net/DTD/sodipodi-0.dtd"
   xmlns:inkscape="http://www.inkscape.org/namespaces/inkscape"
   width="20.637501mm"
   height="20.902082mm"
   viewBox="0 0 20.637501 20.902082"
   version="1.1"
   id="svg4748"
   inkscape:version="0.92.5 (2060ec1f9f, 2020-04-08)"
   sodipodi:docname="strawberry.svg">
  <defs
     id="defs4742" />
  <sodipodi:namedview
     id="base"
     pagecolor="#ffffff"
     bordercolor="#666666"
     borderopacity="1.0"
     inkscape:pageopacity="0.0"
     inkscape:pageshadow="2"
     inkscape:zoom="7.9195959"
     inkscape:cx="91.90925"
     inkscape:cy="15.768861"
     inkscape:document-units="mm"
     inkscape:current-layer="layer1"
     showgrid="false"
     inkscape:window-width="1920"
     inkscape:window-height="1016"
     inkscape:window-x="0"
     inkscape:window-y="27"
     inkscape:window-maximized="1" />
  <metadata
     id="metadata4745">
    <rdf:RDF>
      <cc:Work
         rdf:about="">
        <dc:format>image/svg+xml</dc:format>
        <dc:type
           rdf:resource="http://purl.org/dc/dcmitype/StillImage" />
        <dc:title></dc:title>
      </cc:Work>
    </rdf:RDF>
  </metadata>
  <g
     inkscape:label="Layer 1"
     inkscape:groupmode="layer"
     id="layer1"
     transform="translate(-89.466965,-102.09658)">
    <path
       style="fill:#000000;stroke-width:0.26458332"
       d="m 97.628407,118.48348 c -3.028302,-3.22555 -3.726002,-6.90285 -1.634564,-8.61516 0.276816,-0.22663 0.299239,-0.46849 0.09358,-1.00941 -0.46338,-1.21878 -0.347006,-1.73525 0.390999,-1.73525 0.411574,0 0.661458,-0.14993 0.661458,-0.39687 0,-0.57525 1.124623,-0.49672 1.927172,0.13456 l 0.675617,0.53144 0.17417,-0.79299 c 0.178201,-0.81134 0.569651,-1.2448 0.861031,-0.95343 0.0898,0.0898 0.0223,0.30409 -0.1499,0.47629 -0.1722,0.1722 -0.31309,0.53204 -0.31309,0.79964 0,0.45624 0.0361,0.45294 0.57906,-0.0529 0.6872,-0.64023 2.06678,-0.73541 2.06678,-0.1426 0,0.24694 0.24988,0.39687 0.66145,0.39687 0.72472,0 0.78622,0.22994 0.41123,1.53746 -0.20845,0.72682 -0.16251,0.96022 0.27515,1.39788 1.8336,1.8336 1.0987,5.22489 -1.81501,8.3756 -1.17406,1.26955 -1.38449,1.38906 -2.44574,1.38906 -1.053397,0 -1.277936,-0.12438 -2.419395,-1.34018 z m 4.712883,-0.6085 c 1.58811,-1.75855 2.4656,-3.63785 2.46892,-5.28767 0.002,-1.1083 -0.12004,-1.40586 -0.89699,-2.18281 -0.94397,-0.94397 -0.96329,-0.94769 -4.921255,-0.94769 -1.705858,0 -1.933977,0.0771 -2.804583,0.94769 -0.792837,0.79283 -0.899583,1.06315 -0.899583,2.27806 0,1.76 1.160041,4.02302 2.893303,5.64428 1.645334,1.53902 2.440228,1.45268 4.160188,-0.45186 z M 99.785716,117.707 c 0,-0.29105 0.119062,-0.52917 0.264584,-0.52917 0.14552,0 0.26458,0.23812 0.26458,0.52917 0,0.29104 -0.11906,0.52916 -0.26458,0.52916 -0.145522,0 -0.264584,-0.23812 -0.264584,-0.52916 z m -1.204874,-1.34597 c -0.09777,-0.15821 -0.04527,-0.42014 0.116677,-0.58209 0.216206,-0.2162 0.294446,-0.13977 0.294446,0.28764 0,0.63884 -0.13744,0.73727 -0.411123,0.29445 z m 2.527788,-0.24153 c 0,-0.29105 0.11906,-0.52917 0.26459,-0.52917 0.14552,0 0.26458,0.23812 0.26458,0.52917 0,0.29104 -0.11906,0.52916 -0.26458,0.52916 -0.14553,0 -0.26459,-0.23812 -0.26459,-0.52916 z m -3.968748,-1.5875 c 0,-0.29105 0.119063,-0.52917 0.264583,-0.52917 0.145521,0 0.264584,0.23812 0.264584,0.52917 0,0.29104 -0.119063,0.52916 -0.264584,0.52916 -0.14552,0 -0.264583,-0.23812 -0.264583,-0.52916 z m 2.645834,0 c 0,-0.29105 0.119062,-0.52917 0.264584,-0.52917 0.14552,0 0.26458,0.23812 0.26458,0.52917 0,0.29104 -0.11906,0.52916 -0.26458,0.52916 -0.145522,0 -0.264584,-0.23812 -0.264584,-0.52916 z m 2.687614,0 c 0,-0.36381 0.06,-0.51263 0.13345,-0.33073 0.0734,0.1819 0.0734,0.47955 0,0.66146 -0.0734,0.1819 -0.13345,0.0331 -0.13345,-0.33073 z m -6.391781,-1.5875 c 0,-0.49389 0.07055,-0.56445 0.3175,-0.3175 0.246944,0.24694 0.246944,0.38805 0,0.635 -0.246945,0.24694 -0.3175,0.17638 -0.3175,-0.3175 z m 2.68761,0 c 0,-0.36381 0.06005,-0.51263 0.133452,-0.33073 0.0734,0.1819 0.0734,0.47955 0,0.66146 -0.0734,0.1819 -0.133452,0.0331 -0.133452,-0.33073 z m 2.339471,0 c 0,-0.29105 0.11906,-0.52917 0.26459,-0.52917 0.14552,0 0.26458,0.23812 0.26458,0.52917 0,0.29104 -0.11906,0.52916 -0.26458,0.52916 -0.14553,0 -0.26459,-0.23812 -0.26459,-0.52916 z m 2.5218,0.18702 c -0.11325,-0.26094 -0.13168,-0.54867 -0.0409,-0.63941 0.26868,-0.26868 0.48527,0.10873 0.3616,0.63011 -0.10963,0.46222 -0.12389,0.46263 -0.32066,0.009 z M 97.139882,111.357 c 0,-0.29105 0.119063,-0.52917 0.264583,-0.52917 0.145521,0 0.264584,0.23812 0.264584,0.52917 0,0.29104 -0.119063,0.52916 -0.264584,0.52916 -0.14552,0 -0.264583,-0.23812 -0.264583,-0.52916 z m 2.645834,0 c 0,-0.29105 0.119062,-0.52917 0.264584,-0.52917 0.14552,0 0.26458,0.23812 0.26458,0.52917 0,0.29104 -0.11906,0.52916 -0.26458,0.52916 -0.145522,0 -0.264584,-0.23812 -0.264584,-0.52916 z m 2.687614,0 c 0,-0.36381 0.06,-0.51263 0.13345,-0.33073 0.0734,0.1819 0.0734,0.47955 0,0.66146 -0.0734,0.1819 -0.13345,0.0331 -0.13345,-0.33073 z m -4.939952,-2.37579 c 0.23119,-0.37407 -0.3433,-1.32838 -0.79968,-1.32838 -0.407044,0 -0.497255,0.46463 -0.226967,1.16899 0.178846,0.46606 0.779482,0.55932 1.026647,0.15939 z m 6.054322,-0.33619 c 0.23354,-0.87144 0.20736,-0.99219 -0.21511,-0.99219 -0.57977,0 -1.284,1.10947 -0.87082,1.37192 0.56611,0.35957 0.92107,0.23545 1.08593,-0.37973 z m -4.860318,-0.19844 c -0.349253,-0.65258 -0.08067,-0.68168 0.610675,-0.0661 0.512861,0.45662 0.514199,0.45158 0.09676,-0.36481 -0.389322,-0.76141 -0.909596,-1.15654 -1.522829,-1.15654 -0.381732,0 -0.284311,0.88153 0.168934,1.52863 0.521315,0.74428 1.038481,0.79138 0.646455,0.0589 z m 3.300498,-0.25144 c 0.22202,-0.42934 0.40367,-0.90559 0.40367,-1.05834 0,-0.54213 -1.02825,-0.26714 -1.5683,0.41942 -0.67786,0.86176 -0.72075,1.39296 -0.0645,0.79908 0.55034,-0.49806 1.11303,-0.60602 0.62739,-0.12039 -0.38358,0.38358 -0.41237,0.74084 -0.0597,0.74084 0.14178,0 0.43944,-0.35128 0.66146,-0.78061 z"
       id="path4761"
       inkscape:connector-curvature="0" />
  </g>
</svg>
